<mxfile host="Electron" agent="Mozilla/5.0 (Macintosh; Intel Mac OS X 10_15_7) AppleWebKit/537.36 (KHTML, like Gecko) draw.io/24.7.5 Chrome/126.0.6478.183 Electron/31.3.0 Safari/537.36" version="24.7.5" pages="3">
  <diagram id="gNgdKl5_b1Yh-O1jO7HU" name="network-topology">
    <mxGraphModel dx="954" dy="674" grid="1" gridSize="10" guides="1" tooltips="1" connect="1" arrows="1" fold="1" page="1" pageScale="1" pageWidth="827" pageHeight="1169" math="0" shadow="0">
      <root>
        <mxCell id="0" />
        <mxCell id="1" parent="0" />
        <mxCell id="zGT_LQZG4tvtjkvBDIZW-1" value="" style="rounded=0;whiteSpace=wrap;html=1;strokeColor=none;" vertex="1" parent="1">
          <mxGeometry x="30" y="10.96" width="910" height="349.04" as="geometry" />
        </mxCell>
        <mxCell id="5sxQL4Nf2udNAJ2xQ1Pe-144" value="" style="ellipse;whiteSpace=wrap;html=1;rotation=-15;dashed=1;dashPattern=8 8;" parent="1" vertex="1">
          <mxGeometry x="60" y="70.96" width="363.29" height="160.09" as="geometry" />
        </mxCell>
        <mxCell id="5sxQL4Nf2udNAJ2xQ1Pe-7" value="" style="rounded=0;whiteSpace=wrap;html=1;dashed=1;dashPattern=8 8;" parent="1" vertex="1">
          <mxGeometry x="433.18" y="40" width="320" height="290" as="geometry" />
        </mxCell>
        <mxCell id="5sxQL4Nf2udNAJ2xQ1Pe-13" style="rounded=0;orthogonalLoop=1;jettySize=auto;html=1;exitX=1;exitY=0.25;exitDx=0;exitDy=0;entryX=0;entryY=0.5;entryDx=0;entryDy=0;" parent="1" source="5sxQL4Nf2udNAJ2xQ1Pe-1" target="5sxQL4Nf2udNAJ2xQ1Pe-3" edge="1">
          <mxGeometry relative="1" as="geometry" />
        </mxCell>
        <mxCell id="5sxQL4Nf2udNAJ2xQ1Pe-15" style="rounded=0;orthogonalLoop=1;jettySize=auto;html=1;exitX=1;exitY=0.75;exitDx=0;exitDy=0;entryX=0;entryY=0.5;entryDx=0;entryDy=0;" parent="1" source="5sxQL4Nf2udNAJ2xQ1Pe-1" target="5sxQL4Nf2udNAJ2xQ1Pe-6" edge="1">
          <mxGeometry relative="1" as="geometry" />
        </mxCell>
        <mxCell id="5sxQL4Nf2udNAJ2xQ1Pe-1" value="&lt;div&gt;用户设备&lt;/div&gt;&lt;div&gt;Application&lt;/div&gt;" style="rounded=1;whiteSpace=wrap;html=1;fillColor=#dae8fc;strokeColor=#6c8ebf;" parent="1" vertex="1">
          <mxGeometry x="93.18" y="150" width="120" height="60" as="geometry" />
        </mxCell>
        <mxCell id="5sxQL4Nf2udNAJ2xQ1Pe-14" style="edgeStyle=orthogonalEdgeStyle;rounded=0;orthogonalLoop=1;jettySize=auto;html=1;exitX=1;exitY=0.5;exitDx=0;exitDy=0;entryX=0;entryY=0.5;entryDx=0;entryDy=0;" parent="1" source="5sxQL4Nf2udNAJ2xQ1Pe-3" target="5sxQL4Nf2udNAJ2xQ1Pe-4" edge="1">
          <mxGeometry relative="1" as="geometry" />
        </mxCell>
        <mxCell id="5sxQL4Nf2udNAJ2xQ1Pe-3" value="&lt;div&gt;路由器&lt;/div&gt;Router" style="rounded=1;whiteSpace=wrap;html=1;fillColor=#d5e8d4;strokeColor=#82b366;" parent="1" vertex="1">
          <mxGeometry x="273.18" y="100" width="120" height="60" as="geometry" />
        </mxCell>
        <mxCell id="5sxQL4Nf2udNAJ2xQ1Pe-4" value="&lt;div&gt;光猫&lt;/div&gt;Optical Network Unit" style="rounded=1;whiteSpace=wrap;html=1;fillColor=#ffe6cc;strokeColor=#d79b00;" parent="1" vertex="1">
          <mxGeometry x="463.18" y="100" width="120" height="60" as="geometry" />
        </mxCell>
        <mxCell id="5sxQL4Nf2udNAJ2xQ1Pe-12" style="edgeStyle=orthogonalEdgeStyle;rounded=0;orthogonalLoop=1;jettySize=auto;html=1;exitX=0.875;exitY=0.5;exitDx=0;exitDy=0;exitPerimeter=0;entryX=0;entryY=0.5;entryDx=0;entryDy=0;" parent="1" source="5sxQL4Nf2udNAJ2xQ1Pe-5" target="5sxQL4Nf2udNAJ2xQ1Pe-9" edge="1">
          <mxGeometry relative="1" as="geometry" />
        </mxCell>
        <mxCell id="5sxQL4Nf2udNAJ2xQ1Pe-5" value="ISP 机房&amp;amp;网络" style="ellipse;shape=cloud;whiteSpace=wrap;html=1;fillColor=#f8cecc;strokeColor=#b85450;" parent="1" vertex="1">
          <mxGeometry x="603.18" y="155" width="130" height="85" as="geometry" />
        </mxCell>
        <mxCell id="5sxQL4Nf2udNAJ2xQ1Pe-6" value="&lt;div&gt;基站&lt;/div&gt;Base Station" style="rounded=1;whiteSpace=wrap;html=1;fillColor=#fff2cc;strokeColor=#d6b656;" parent="1" vertex="1">
          <mxGeometry x="463.18" y="230" width="120" height="60" as="geometry" />
        </mxCell>
        <mxCell id="5sxQL4Nf2udNAJ2xQ1Pe-8" value="ISP ( Internet Service Provider)" style="text;html=1;align=center;verticalAlign=middle;whiteSpace=wrap;rounded=0;" parent="1" vertex="1">
          <mxGeometry x="563.18" y="40" width="190" height="30" as="geometry" />
        </mxCell>
        <mxCell id="5sxQL4Nf2udNAJ2xQ1Pe-9" value="&lt;div&gt;服务器&lt;/div&gt;&lt;div&gt;App Server&lt;/div&gt;" style="rounded=1;whiteSpace=wrap;html=1;fillColor=#e1d5e7;strokeColor=#9673a6;" parent="1" vertex="1">
          <mxGeometry x="793.18" y="167.5" width="120" height="60" as="geometry" />
        </mxCell>
        <mxCell id="5sxQL4Nf2udNAJ2xQ1Pe-10" style="rounded=0;orthogonalLoop=1;jettySize=auto;html=1;exitX=1;exitY=0.5;exitDx=0;exitDy=0;entryX=0.25;entryY=0.25;entryDx=0;entryDy=0;entryPerimeter=0;" parent="1" source="5sxQL4Nf2udNAJ2xQ1Pe-4" target="5sxQL4Nf2udNAJ2xQ1Pe-5" edge="1">
          <mxGeometry relative="1" as="geometry" />
        </mxCell>
        <mxCell id="5sxQL4Nf2udNAJ2xQ1Pe-11" style="rounded=0;orthogonalLoop=1;jettySize=auto;html=1;exitX=1;exitY=0.5;exitDx=0;exitDy=0;entryX=0.262;entryY=0.812;entryDx=0;entryDy=0;entryPerimeter=0;" parent="1" source="5sxQL4Nf2udNAJ2xQ1Pe-6" target="5sxQL4Nf2udNAJ2xQ1Pe-5" edge="1">
          <mxGeometry relative="1" as="geometry" />
        </mxCell>
        <mxCell id="5sxQL4Nf2udNAJ2xQ1Pe-16" value="双绞线" style="text;html=1;align=center;verticalAlign=middle;whiteSpace=wrap;rounded=0;" parent="1" vertex="1">
          <mxGeometry x="393.18" y="100" width="60" height="30" as="geometry" />
        </mxCell>
        <mxCell id="5sxQL4Nf2udNAJ2xQ1Pe-17" value="光纤" style="text;html=1;align=center;verticalAlign=middle;whiteSpace=wrap;rounded=0;" parent="1" vertex="1">
          <mxGeometry x="593.18" y="125" width="60" height="30" as="geometry" />
        </mxCell>
        <mxCell id="5sxQL4Nf2udNAJ2xQ1Pe-20" value="WiFi / 有线" style="text;html=1;align=center;verticalAlign=middle;whiteSpace=wrap;rounded=0;" parent="1" vertex="1">
          <mxGeometry x="203.18" y="115" width="60" height="30" as="geometry" />
        </mxCell>
        <mxCell id="5sxQL4Nf2udNAJ2xQ1Pe-21" value="移动通信 4G/5G" style="text;html=1;align=center;verticalAlign=middle;whiteSpace=wrap;rounded=0;" parent="1" vertex="1">
          <mxGeometry x="323.18" y="240" width="60" height="30" as="geometry" />
        </mxCell>
        <mxCell id="5sxQL4Nf2udNAJ2xQ1Pe-145" value="局域网（内网）" style="text;html=1;align=center;verticalAlign=middle;whiteSpace=wrap;rounded=0;" parent="1" vertex="1">
          <mxGeometry x="233.18" y="60" width="120" height="30" as="geometry" />
        </mxCell>
      </root>
    </mxGraphModel>
  </diagram>
  <diagram name="osi-layer" id="jmNp_BSKcBlpexHbNMew">
    <mxGraphModel dx="954" dy="674" grid="1" gridSize="10" guides="1" tooltips="1" connect="1" arrows="1" fold="1" page="1" pageScale="1" pageWidth="827" pageHeight="1169" math="0" shadow="0">
      <root>
        <mxCell id="1_FsFoEQCdbAvQfWWtDt-0" />
        <mxCell id="1_FsFoEQCdbAvQfWWtDt-1" parent="1_FsFoEQCdbAvQfWWtDt-0" />
        <mxCell id="zO0gM04EJ7woJbQby-sW-3" value="" style="rounded=0;whiteSpace=wrap;html=1;strokeColor=none;" vertex="1" parent="1_FsFoEQCdbAvQfWWtDt-1">
          <mxGeometry x="30" y="380" width="1020" height="420" as="geometry" />
        </mxCell>
        <mxCell id="1_FsFoEQCdbAvQfWWtDt-21" value="应用层&lt;div&gt;Application Layer&lt;/div&gt;" style="rounded=0;whiteSpace=wrap;html=1;fillColor=#fad7ac;strokeColor=#b46504;" vertex="1" parent="1_FsFoEQCdbAvQfWWtDt-1">
          <mxGeometry x="59" y="421" width="120" height="70" as="geometry" />
        </mxCell>
        <mxCell id="1_FsFoEQCdbAvQfWWtDt-22" value="传输层&lt;div&gt;Transport Layer&lt;/div&gt;" style="rounded=0;whiteSpace=wrap;html=1;fillColor=#fad9d5;strokeColor=#ae4132;" vertex="1" parent="1_FsFoEQCdbAvQfWWtDt-1">
          <mxGeometry x="59" y="491" width="120" height="70" as="geometry" />
        </mxCell>
        <mxCell id="1_FsFoEQCdbAvQfWWtDt-23" value="网络层&lt;div&gt;Network Layer&lt;/div&gt;" style="rounded=0;whiteSpace=wrap;html=1;fillColor=#b0e3e6;strokeColor=#0e8088;" vertex="1" parent="1_FsFoEQCdbAvQfWWtDt-1">
          <mxGeometry x="59" y="561" width="120" height="70" as="geometry" />
        </mxCell>
        <mxCell id="1_FsFoEQCdbAvQfWWtDt-24" value="数据链路层&lt;div&gt;Data Link Layer&lt;/div&gt;" style="rounded=0;whiteSpace=wrap;html=1;fillColor=#d0cee2;strokeColor=#56517e;" vertex="1" parent="1_FsFoEQCdbAvQfWWtDt-1">
          <mxGeometry x="59" y="631" width="120" height="70" as="geometry" />
        </mxCell>
        <mxCell id="1_FsFoEQCdbAvQfWWtDt-25" style="edgeStyle=orthogonalEdgeStyle;rounded=0;orthogonalLoop=1;jettySize=auto;html=1;exitX=1;exitY=0.5;exitDx=0;exitDy=0;entryX=0;entryY=0.5;entryDx=0;entryDy=0;startArrow=classic;startFill=1;" edge="1" parent="1_FsFoEQCdbAvQfWWtDt-1" source="1_FsFoEQCdbAvQfWWtDt-26">
          <mxGeometry relative="1" as="geometry">
            <mxPoint x="899" y="736" as="targetPoint" />
          </mxGeometry>
        </mxCell>
        <mxCell id="1_FsFoEQCdbAvQfWWtDt-26" value="物理层&lt;div&gt;Physical Layer&lt;/div&gt;" style="rounded=0;whiteSpace=wrap;html=1;fillColor=#bac8d3;strokeColor=#23445d;" vertex="1" parent="1_FsFoEQCdbAvQfWWtDt-1">
          <mxGeometry x="59" y="701" width="120" height="70" as="geometry" />
        </mxCell>
        <mxCell id="1_FsFoEQCdbAvQfWWtDt-27" value="Data" style="rounded=0;whiteSpace=wrap;html=1;fillColor=#fad7ac;strokeColor=#b46504;" vertex="1" parent="1_FsFoEQCdbAvQfWWtDt-1">
          <mxGeometry x="756" y="420" width="70" height="40" as="geometry" />
        </mxCell>
        <mxCell id="1_FsFoEQCdbAvQfWWtDt-28" value="..." style="rounded=0;whiteSpace=wrap;html=1;fillColor=#fad9d5;strokeColor=#ae4132;" vertex="1" parent="1_FsFoEQCdbAvQfWWtDt-1">
          <mxGeometry x="716" y="495" width="40" height="40" as="geometry" />
        </mxCell>
        <mxCell id="1_FsFoEQCdbAvQfWWtDt-29" value="目标 Port" style="rounded=0;whiteSpace=wrap;html=1;fillColor=#fad9d5;strokeColor=#ae4132;" vertex="1" parent="1_FsFoEQCdbAvQfWWtDt-1">
          <mxGeometry x="646" y="495" width="70" height="40" as="geometry" />
        </mxCell>
        <mxCell id="1_FsFoEQCdbAvQfWWtDt-30" value="源 Port" style="rounded=0;whiteSpace=wrap;html=1;fillColor=#fad9d5;strokeColor=#ae4132;" vertex="1" parent="1_FsFoEQCdbAvQfWWtDt-1">
          <mxGeometry x="576" y="495" width="70" height="40" as="geometry" />
        </mxCell>
        <mxCell id="1_FsFoEQCdbAvQfWWtDt-31" value="Data" style="rounded=0;whiteSpace=wrap;html=1;fillColor=#fad7ac;strokeColor=#b46504;" vertex="1" parent="1_FsFoEQCdbAvQfWWtDt-1">
          <mxGeometry x="756" y="495" width="70" height="40" as="geometry" />
        </mxCell>
        <mxCell id="1_FsFoEQCdbAvQfWWtDt-32" value="..." style="rounded=0;whiteSpace=wrap;html=1;fillColor=#fad9d5;strokeColor=#ae4132;" vertex="1" parent="1_FsFoEQCdbAvQfWWtDt-1">
          <mxGeometry x="716" y="575" width="40" height="40" as="geometry" />
        </mxCell>
        <mxCell id="1_FsFoEQCdbAvQfWWtDt-33" value="目标 Port" style="rounded=0;whiteSpace=wrap;html=1;fillColor=#fad9d5;strokeColor=#ae4132;" vertex="1" parent="1_FsFoEQCdbAvQfWWtDt-1">
          <mxGeometry x="646" y="575" width="70" height="40" as="geometry" />
        </mxCell>
        <mxCell id="1_FsFoEQCdbAvQfWWtDt-34" value="源 Port" style="rounded=0;whiteSpace=wrap;html=1;fillColor=#fad9d5;strokeColor=#ae4132;" vertex="1" parent="1_FsFoEQCdbAvQfWWtDt-1">
          <mxGeometry x="576" y="575" width="70" height="40" as="geometry" />
        </mxCell>
        <mxCell id="1_FsFoEQCdbAvQfWWtDt-35" value="Data" style="rounded=0;whiteSpace=wrap;html=1;fillColor=#fad7ac;strokeColor=#b46504;" vertex="1" parent="1_FsFoEQCdbAvQfWWtDt-1">
          <mxGeometry x="756" y="575" width="70" height="40" as="geometry" />
        </mxCell>
        <mxCell id="1_FsFoEQCdbAvQfWWtDt-36" value="..." style="rounded=0;whiteSpace=wrap;html=1;fillColor=#b0e3e6;strokeColor=#0e8088;" vertex="1" parent="1_FsFoEQCdbAvQfWWtDt-1">
          <mxGeometry x="536" y="575" width="40" height="40" as="geometry" />
        </mxCell>
        <mxCell id="1_FsFoEQCdbAvQfWWtDt-37" value="源 IP" style="rounded=0;whiteSpace=wrap;html=1;fillColor=#b0e3e6;strokeColor=#0e8088;" vertex="1" parent="1_FsFoEQCdbAvQfWWtDt-1">
          <mxGeometry x="396" y="575" width="70" height="40" as="geometry" />
        </mxCell>
        <mxCell id="1_FsFoEQCdbAvQfWWtDt-38" value="目标 IP" style="rounded=0;whiteSpace=wrap;html=1;fillColor=#b0e3e6;strokeColor=#0e8088;" vertex="1" parent="1_FsFoEQCdbAvQfWWtDt-1">
          <mxGeometry x="466" y="575" width="70" height="40" as="geometry" />
        </mxCell>
        <mxCell id="1_FsFoEQCdbAvQfWWtDt-39" value="TCP Header" style="text;html=1;align=center;verticalAlign=middle;resizable=0;points=[];autosize=1;strokeColor=none;fillColor=none;" vertex="1" parent="1_FsFoEQCdbAvQfWWtDt-1">
          <mxGeometry x="626" y="535" width="90" height="30" as="geometry" />
        </mxCell>
        <mxCell id="1_FsFoEQCdbAvQfWWtDt-40" value="IP Header" style="text;html=1;align=center;verticalAlign=middle;resizable=0;points=[];autosize=1;strokeColor=none;fillColor=none;" vertex="1" parent="1_FsFoEQCdbAvQfWWtDt-1">
          <mxGeometry x="446" y="535" width="80" height="30" as="geometry" />
        </mxCell>
        <mxCell id="1_FsFoEQCdbAvQfWWtDt-41" value="..." style="rounded=0;whiteSpace=wrap;html=1;fillColor=#fad9d5;strokeColor=#ae4132;" vertex="1" parent="1_FsFoEQCdbAvQfWWtDt-1">
          <mxGeometry x="716" y="656" width="40" height="40" as="geometry" />
        </mxCell>
        <mxCell id="1_FsFoEQCdbAvQfWWtDt-42" value="目标 Port" style="rounded=0;whiteSpace=wrap;html=1;fillColor=#fad9d5;strokeColor=#ae4132;" vertex="1" parent="1_FsFoEQCdbAvQfWWtDt-1">
          <mxGeometry x="646" y="656" width="70" height="40" as="geometry" />
        </mxCell>
        <mxCell id="1_FsFoEQCdbAvQfWWtDt-43" value="源 Port" style="rounded=0;whiteSpace=wrap;html=1;fillColor=#fad9d5;strokeColor=#ae4132;" vertex="1" parent="1_FsFoEQCdbAvQfWWtDt-1">
          <mxGeometry x="576" y="656" width="70" height="40" as="geometry" />
        </mxCell>
        <mxCell id="1_FsFoEQCdbAvQfWWtDt-44" value="Data" style="rounded=0;whiteSpace=wrap;html=1;fillColor=#fad7ac;strokeColor=#b46504;" vertex="1" parent="1_FsFoEQCdbAvQfWWtDt-1">
          <mxGeometry x="756" y="656" width="70" height="40" as="geometry" />
        </mxCell>
        <mxCell id="1_FsFoEQCdbAvQfWWtDt-45" value="..." style="rounded=0;whiteSpace=wrap;html=1;fillColor=#b0e3e6;strokeColor=#0e8088;" vertex="1" parent="1_FsFoEQCdbAvQfWWtDt-1">
          <mxGeometry x="536" y="656" width="40" height="40" as="geometry" />
        </mxCell>
        <mxCell id="1_FsFoEQCdbAvQfWWtDt-46" value="源 IP" style="rounded=0;whiteSpace=wrap;html=1;fillColor=#b0e3e6;strokeColor=#0e8088;" vertex="1" parent="1_FsFoEQCdbAvQfWWtDt-1">
          <mxGeometry x="396" y="656" width="70" height="40" as="geometry" />
        </mxCell>
        <mxCell id="1_FsFoEQCdbAvQfWWtDt-47" value="目标 IP" style="rounded=0;whiteSpace=wrap;html=1;fillColor=#b0e3e6;strokeColor=#0e8088;" vertex="1" parent="1_FsFoEQCdbAvQfWWtDt-1">
          <mxGeometry x="466" y="656" width="70" height="40" as="geometry" />
        </mxCell>
        <mxCell id="1_FsFoEQCdbAvQfWWtDt-48" value="..." style="rounded=0;whiteSpace=wrap;html=1;fillColor=#d0cee2;strokeColor=#56517e;" vertex="1" parent="1_FsFoEQCdbAvQfWWtDt-1">
          <mxGeometry x="356" y="656" width="40" height="40" as="geometry" />
        </mxCell>
        <mxCell id="1_FsFoEQCdbAvQfWWtDt-49" value="源 MAC" style="rounded=0;whiteSpace=wrap;html=1;fillColor=#d0cee2;strokeColor=#56517e;" vertex="1" parent="1_FsFoEQCdbAvQfWWtDt-1">
          <mxGeometry x="216" y="656" width="70" height="40" as="geometry" />
        </mxCell>
        <mxCell id="1_FsFoEQCdbAvQfWWtDt-50" value="MAC Header" style="text;html=1;align=center;verticalAlign=middle;resizable=0;points=[];autosize=1;strokeColor=none;fillColor=none;" vertex="1" parent="1_FsFoEQCdbAvQfWWtDt-1">
          <mxGeometry x="257.5" y="615" width="90" height="30" as="geometry" />
        </mxCell>
        <mxCell id="1_FsFoEQCdbAvQfWWtDt-51" value="" style="shape=curlyBracket;whiteSpace=wrap;html=1;rounded=1;labelPosition=left;verticalLabelPosition=middle;align=right;verticalAlign=middle;direction=south;" vertex="1" parent="1_FsFoEQCdbAvQfWWtDt-1">
          <mxGeometry x="396" y="553" width="180" height="20" as="geometry" />
        </mxCell>
        <mxCell id="1_FsFoEQCdbAvQfWWtDt-52" value="" style="shape=curlyBracket;whiteSpace=wrap;html=1;rounded=1;labelPosition=left;verticalLabelPosition=middle;align=right;verticalAlign=middle;direction=south;" vertex="1" parent="1_FsFoEQCdbAvQfWWtDt-1">
          <mxGeometry x="576" y="553" width="180" height="20" as="geometry" />
        </mxCell>
        <mxCell id="1_FsFoEQCdbAvQfWWtDt-53" value="TCP Header" style="text;html=1;align=center;verticalAlign=middle;resizable=0;points=[];autosize=1;strokeColor=none;fillColor=none;" vertex="1" parent="1_FsFoEQCdbAvQfWWtDt-1">
          <mxGeometry x="626" y="452" width="90" height="30" as="geometry" />
        </mxCell>
        <mxCell id="1_FsFoEQCdbAvQfWWtDt-54" value="" style="shape=curlyBracket;whiteSpace=wrap;html=1;rounded=1;labelPosition=left;verticalLabelPosition=middle;align=right;verticalAlign=middle;direction=south;" vertex="1" parent="1_FsFoEQCdbAvQfWWtDt-1">
          <mxGeometry x="576" y="470" width="180" height="20" as="geometry" />
        </mxCell>
        <mxCell id="1_FsFoEQCdbAvQfWWtDt-55" value="TCP Header" style="text;html=1;align=center;verticalAlign=middle;resizable=0;points=[];autosize=1;strokeColor=none;fillColor=none;" vertex="1" parent="1_FsFoEQCdbAvQfWWtDt-1">
          <mxGeometry x="626" y="616" width="90" height="30" as="geometry" />
        </mxCell>
        <mxCell id="1_FsFoEQCdbAvQfWWtDt-56" value="IP Header" style="text;html=1;align=center;verticalAlign=middle;resizable=0;points=[];autosize=1;strokeColor=none;fillColor=none;" vertex="1" parent="1_FsFoEQCdbAvQfWWtDt-1">
          <mxGeometry x="446" y="616" width="80" height="30" as="geometry" />
        </mxCell>
        <mxCell id="1_FsFoEQCdbAvQfWWtDt-57" value="" style="shape=curlyBracket;whiteSpace=wrap;html=1;rounded=1;labelPosition=left;verticalLabelPosition=middle;align=right;verticalAlign=middle;direction=south;" vertex="1" parent="1_FsFoEQCdbAvQfWWtDt-1">
          <mxGeometry x="396" y="634" width="180" height="20" as="geometry" />
        </mxCell>
        <mxCell id="1_FsFoEQCdbAvQfWWtDt-58" value="" style="shape=curlyBracket;whiteSpace=wrap;html=1;rounded=1;labelPosition=left;verticalLabelPosition=middle;align=right;verticalAlign=middle;direction=south;" vertex="1" parent="1_FsFoEQCdbAvQfWWtDt-1">
          <mxGeometry x="576" y="634" width="180" height="20" as="geometry" />
        </mxCell>
        <mxCell id="1_FsFoEQCdbAvQfWWtDt-59" value="" style="rounded=0;whiteSpace=wrap;html=1;fillColor=#d0cee2;strokeColor=#56517e;" vertex="1" parent="1_FsFoEQCdbAvQfWWtDt-1">
          <mxGeometry x="826" y="656" width="33" height="40" as="geometry" />
        </mxCell>
        <mxCell id="1_FsFoEQCdbAvQfWWtDt-60" value="010101010101110101" style="text;html=1;align=center;verticalAlign=middle;whiteSpace=wrap;rounded=0;" vertex="1" parent="1_FsFoEQCdbAvQfWWtDt-1">
          <mxGeometry x="505.18" y="738" width="148" height="30" as="geometry" />
        </mxCell>
        <mxCell id="1_FsFoEQCdbAvQfWWtDt-61" value="应用层&lt;div&gt;Application Layer&lt;/div&gt;" style="rounded=0;whiteSpace=wrap;html=1;fillColor=#fad7ac;strokeColor=#b46504;" vertex="1" parent="1_FsFoEQCdbAvQfWWtDt-1">
          <mxGeometry x="899" y="421" width="120" height="70" as="geometry" />
        </mxCell>
        <mxCell id="1_FsFoEQCdbAvQfWWtDt-62" value="传输层&lt;div&gt;Transport Layer&lt;/div&gt;" style="rounded=0;whiteSpace=wrap;html=1;fillColor=#fad9d5;strokeColor=#ae4132;" vertex="1" parent="1_FsFoEQCdbAvQfWWtDt-1">
          <mxGeometry x="899" y="491" width="120" height="70" as="geometry" />
        </mxCell>
        <mxCell id="1_FsFoEQCdbAvQfWWtDt-63" value="网络层&lt;div&gt;Network Layer&lt;/div&gt;" style="rounded=0;whiteSpace=wrap;html=1;fillColor=#b0e3e6;strokeColor=#0e8088;" vertex="1" parent="1_FsFoEQCdbAvQfWWtDt-1">
          <mxGeometry x="899" y="561" width="120" height="70" as="geometry" />
        </mxCell>
        <mxCell id="1_FsFoEQCdbAvQfWWtDt-64" value="数据链路层&lt;div&gt;Data Link Layer&lt;/div&gt;" style="rounded=0;whiteSpace=wrap;html=1;fillColor=#d0cee2;strokeColor=#56517e;" vertex="1" parent="1_FsFoEQCdbAvQfWWtDt-1">
          <mxGeometry x="899" y="631" width="120" height="70" as="geometry" />
        </mxCell>
        <mxCell id="1_FsFoEQCdbAvQfWWtDt-65" value="物理层&lt;div&gt;Physical Layer&lt;/div&gt;" style="rounded=0;whiteSpace=wrap;html=1;fillColor=#bac8d3;strokeColor=#23445d;" vertex="1" parent="1_FsFoEQCdbAvQfWWtDt-1">
          <mxGeometry x="899" y="701" width="120" height="70" as="geometry" />
        </mxCell>
        <mxCell id="1_FsFoEQCdbAvQfWWtDt-66" value="目标 MAC" style="rounded=0;whiteSpace=wrap;html=1;fillColor=#d0cee2;strokeColor=#56517e;" vertex="1" parent="1_FsFoEQCdbAvQfWWtDt-1">
          <mxGeometry x="286" y="656" width="70" height="40" as="geometry" />
        </mxCell>
        <mxCell id="1_FsFoEQCdbAvQfWWtDt-67" value="" style="shape=curlyBracket;whiteSpace=wrap;html=1;rounded=1;labelPosition=left;verticalLabelPosition=middle;align=right;verticalAlign=middle;direction=south;" vertex="1" parent="1_FsFoEQCdbAvQfWWtDt-1">
          <mxGeometry x="216" y="634" width="180" height="20" as="geometry" />
        </mxCell>
        <mxCell id="1_FsFoEQCdbAvQfWWtDt-182" value="电信号 / 光信号 / 无线电波" style="text;html=1;align=center;verticalAlign=middle;whiteSpace=wrap;rounded=0;" vertex="1" parent="1_FsFoEQCdbAvQfWWtDt-1">
          <mxGeometry x="340.11" y="738" width="168" height="30" as="geometry" />
        </mxCell>
      </root>
    </mxGraphModel>
  </diagram>
  <diagram name="network-travel" id="6g0s56ZADDNOtEhb1KUJ">
    <mxGraphModel dx="954" dy="674" grid="1" gridSize="10" guides="1" tooltips="1" connect="1" arrows="1" fold="1" page="1" pageScale="1" pageWidth="827" pageHeight="1169" math="0" shadow="0">
      <root>
        <mxCell id="il65RGd4kSd9PAPHSQ9J-0" />
        <mxCell id="il65RGd4kSd9PAPHSQ9J-1" parent="il65RGd4kSd9PAPHSQ9J-0" />
        <mxCell id="MBQj4wkH2_aaKHuTZ7S7-0" value="" style="rounded=0;whiteSpace=wrap;html=1;strokeColor=none;" vertex="1" parent="il65RGd4kSd9PAPHSQ9J-1">
          <mxGeometry x="24" y="870" width="2316" height="570" as="geometry" />
        </mxCell>
        <mxCell id="il65RGd4kSd9PAPHSQ9J-68" value="应用层&lt;div&gt;Application Layer&lt;/div&gt;" style="rounded=0;whiteSpace=wrap;html=1;fillColor=#fad7ac;strokeColor=#b46504;" vertex="1" parent="il65RGd4kSd9PAPHSQ9J-1">
          <mxGeometry x="60" y="1045" width="120" height="70" as="geometry" />
        </mxCell>
        <mxCell id="il65RGd4kSd9PAPHSQ9J-69" value="传输层&lt;div&gt;Transport Layer&lt;/div&gt;" style="rounded=0;whiteSpace=wrap;html=1;fillColor=#fad9d5;strokeColor=#ae4132;" vertex="1" parent="il65RGd4kSd9PAPHSQ9J-1">
          <mxGeometry x="60" y="1115" width="120" height="70" as="geometry" />
        </mxCell>
        <mxCell id="il65RGd4kSd9PAPHSQ9J-70" value="网络层&lt;div&gt;Network Layer&lt;/div&gt;" style="rounded=0;whiteSpace=wrap;html=1;fillColor=#b0e3e6;strokeColor=#0e8088;" vertex="1" parent="il65RGd4kSd9PAPHSQ9J-1">
          <mxGeometry x="60" y="1185" width="120" height="70" as="geometry" />
        </mxCell>
        <mxCell id="il65RGd4kSd9PAPHSQ9J-71" value="数据链路层&lt;div&gt;Data Link Layer&lt;/div&gt;" style="rounded=0;whiteSpace=wrap;html=1;fillColor=#d0cee2;strokeColor=#56517e;" vertex="1" parent="il65RGd4kSd9PAPHSQ9J-1">
          <mxGeometry x="60" y="1255" width="120" height="70" as="geometry" />
        </mxCell>
        <mxCell id="il65RGd4kSd9PAPHSQ9J-72" style="edgeStyle=orthogonalEdgeStyle;rounded=0;orthogonalLoop=1;jettySize=auto;html=1;exitX=1;exitY=0.5;exitDx=0;exitDy=0;entryX=0;entryY=0.5;entryDx=0;entryDy=0;startArrow=none;startFill=0;" edge="1" parent="il65RGd4kSd9PAPHSQ9J-1" source="il65RGd4kSd9PAPHSQ9J-73" target="il65RGd4kSd9PAPHSQ9J-90">
          <mxGeometry relative="1" as="geometry">
            <mxPoint x="900" y="1360" as="targetPoint" />
          </mxGeometry>
        </mxCell>
        <mxCell id="il65RGd4kSd9PAPHSQ9J-73" value="物理层&lt;div&gt;Physical Layer&lt;/div&gt;" style="rounded=0;whiteSpace=wrap;html=1;fillColor=#bac8d3;strokeColor=#23445d;" vertex="1" parent="il65RGd4kSd9PAPHSQ9J-1">
          <mxGeometry x="60" y="1325" width="120" height="70" as="geometry" />
        </mxCell>
        <mxCell id="il65RGd4kSd9PAPHSQ9J-74" value="TCP 头" style="rounded=0;whiteSpace=wrap;html=1;fillColor=#fad9d5;strokeColor=#ae4132;" vertex="1" parent="il65RGd4kSd9PAPHSQ9J-1">
          <mxGeometry x="532" y="1119" width="53" height="40" as="geometry" />
        </mxCell>
        <mxCell id="il65RGd4kSd9PAPHSQ9J-75" value="Data" style="rounded=0;whiteSpace=wrap;html=1;fillColor=#fad7ac;strokeColor=#b46504;" vertex="1" parent="il65RGd4kSd9PAPHSQ9J-1">
          <mxGeometry x="585" y="1119" width="53" height="40" as="geometry" />
        </mxCell>
        <mxCell id="il65RGd4kSd9PAPHSQ9J-76" value="..." style="rounded=0;whiteSpace=wrap;html=1;fillColor=#b0e3e6;strokeColor=#0e8088;" vertex="1" parent="il65RGd4kSd9PAPHSQ9J-1">
          <mxGeometry x="492" y="1189" width="40" height="40" as="geometry" />
        </mxCell>
        <mxCell id="il65RGd4kSd9PAPHSQ9J-77" value="&lt;span style=&quot;color: rgb(35, 47, 62); text-wrap: nowrap;&quot;&gt;用户内网IP&lt;/span&gt;&lt;div&gt;&lt;span style=&quot;color: rgb(35, 47, 62); text-wrap: nowrap;&quot;&gt;192.168.3.23&lt;/span&gt;&lt;/div&gt;" style="rounded=0;whiteSpace=wrap;html=1;fillColor=#b0e3e6;strokeColor=#0e8088;" vertex="1" parent="il65RGd4kSd9PAPHSQ9J-1">
          <mxGeometry x="352" y="1189" width="70" height="40" as="geometry" />
        </mxCell>
        <mxCell id="il65RGd4kSd9PAPHSQ9J-78" value="远程服务器公网 IP" style="rounded=0;whiteSpace=wrap;html=1;fillColor=#b0e3e6;strokeColor=#0e8088;" vertex="1" parent="il65RGd4kSd9PAPHSQ9J-1">
          <mxGeometry x="422" y="1189" width="70" height="40" as="geometry" />
        </mxCell>
        <mxCell id="il65RGd4kSd9PAPHSQ9J-79" value="IP Header" style="text;html=1;align=center;verticalAlign=middle;resizable=0;points=[];autosize=1;strokeColor=none;fillColor=none;" vertex="1" parent="il65RGd4kSd9PAPHSQ9J-1">
          <mxGeometry x="402" y="1149" width="80" height="30" as="geometry" />
        </mxCell>
        <mxCell id="il65RGd4kSd9PAPHSQ9J-80" value="..." style="rounded=0;whiteSpace=wrap;html=1;fillColor=#d0cee2;strokeColor=#56517e;" vertex="1" parent="il65RGd4kSd9PAPHSQ9J-1">
          <mxGeometry x="330" y="1279" width="22" height="40" as="geometry" />
        </mxCell>
        <mxCell id="il65RGd4kSd9PAPHSQ9J-81" value="用户设备 MAC" style="rounded=0;whiteSpace=wrap;html=1;fillColor=#d0cee2;strokeColor=#56517e;" vertex="1" parent="il65RGd4kSd9PAPHSQ9J-1">
          <mxGeometry x="190" y="1279" width="70" height="40" as="geometry" />
        </mxCell>
        <mxCell id="il65RGd4kSd9PAPHSQ9J-82" value="MAC Header" style="text;html=1;align=center;verticalAlign=middle;resizable=0;points=[];autosize=1;strokeColor=none;fillColor=none;" vertex="1" parent="il65RGd4kSd9PAPHSQ9J-1">
          <mxGeometry x="213.5" y="1238" width="90" height="30" as="geometry" />
        </mxCell>
        <mxCell id="il65RGd4kSd9PAPHSQ9J-83" value="" style="shape=curlyBracket;whiteSpace=wrap;html=1;rounded=1;labelPosition=left;verticalLabelPosition=middle;align=right;verticalAlign=middle;direction=south;" vertex="1" parent="il65RGd4kSd9PAPHSQ9J-1">
          <mxGeometry x="352" y="1167" width="180" height="20" as="geometry" />
        </mxCell>
        <mxCell id="il65RGd4kSd9PAPHSQ9J-84" value="" style="rounded=0;whiteSpace=wrap;html=1;fillColor=#d0cee2;strokeColor=#56517e;" vertex="1" parent="il65RGd4kSd9PAPHSQ9J-1">
          <mxGeometry x="638" y="1279" width="22" height="40" as="geometry" />
        </mxCell>
        <mxCell id="il65RGd4kSd9PAPHSQ9J-85" value="010101010101110101" style="text;html=1;align=center;verticalAlign=middle;whiteSpace=wrap;rounded=0;" vertex="1" parent="il65RGd4kSd9PAPHSQ9J-1">
          <mxGeometry x="340.11" y="1362" width="148" height="30" as="geometry" />
        </mxCell>
        <mxCell id="il65RGd4kSd9PAPHSQ9J-86" value="应用层&lt;div&gt;Application Layer&lt;/div&gt;" style="rounded=0;whiteSpace=wrap;html=1;fillColor=#fad7ac;strokeColor=#b46504;" vertex="1" parent="il65RGd4kSd9PAPHSQ9J-1">
          <mxGeometry x="677" y="1045" width="120" height="70" as="geometry" />
        </mxCell>
        <mxCell id="il65RGd4kSd9PAPHSQ9J-87" value="传输层&lt;div&gt;Transport Layer&lt;/div&gt;" style="rounded=0;whiteSpace=wrap;html=1;fillColor=#fad9d5;strokeColor=#ae4132;" vertex="1" parent="il65RGd4kSd9PAPHSQ9J-1">
          <mxGeometry x="677" y="1115" width="120" height="70" as="geometry" />
        </mxCell>
        <mxCell id="il65RGd4kSd9PAPHSQ9J-88" value="网络层&lt;div&gt;Network Layer&lt;/div&gt;" style="rounded=0;whiteSpace=wrap;html=1;fillColor=#b0e3e6;strokeColor=#0e8088;" vertex="1" parent="il65RGd4kSd9PAPHSQ9J-1">
          <mxGeometry x="677" y="1185" width="120" height="70" as="geometry" />
        </mxCell>
        <mxCell id="il65RGd4kSd9PAPHSQ9J-89" value="数据链路层&lt;div&gt;Data Link Layer&lt;/div&gt;" style="rounded=0;whiteSpace=wrap;html=1;fillColor=#d0cee2;strokeColor=#56517e;" vertex="1" parent="il65RGd4kSd9PAPHSQ9J-1">
          <mxGeometry x="677" y="1255" width="120" height="70" as="geometry" />
        </mxCell>
        <mxCell id="il65RGd4kSd9PAPHSQ9J-90" value="物理层&lt;div&gt;Physical Layer&lt;/div&gt;" style="rounded=0;whiteSpace=wrap;html=1;fillColor=#bac8d3;strokeColor=#23445d;" vertex="1" parent="il65RGd4kSd9PAPHSQ9J-1">
          <mxGeometry x="677" y="1325" width="120" height="70" as="geometry" />
        </mxCell>
        <mxCell id="il65RGd4kSd9PAPHSQ9J-91" value="路由器&lt;div&gt;MAC&lt;/div&gt;" style="rounded=0;whiteSpace=wrap;html=1;fillColor=#d0cee2;strokeColor=#56517e;" vertex="1" parent="il65RGd4kSd9PAPHSQ9J-1">
          <mxGeometry x="260" y="1279" width="70" height="40" as="geometry" />
        </mxCell>
        <mxCell id="il65RGd4kSd9PAPHSQ9J-92" value="" style="shape=curlyBracket;whiteSpace=wrap;html=1;rounded=1;labelPosition=left;verticalLabelPosition=middle;align=right;verticalAlign=middle;direction=south;" vertex="1" parent="il65RGd4kSd9PAPHSQ9J-1">
          <mxGeometry x="190" y="1257" width="162" height="20" as="geometry" />
        </mxCell>
        <mxCell id="il65RGd4kSd9PAPHSQ9J-93" value="用户设备&lt;div&gt;内网 IP：192.168.3.23&lt;/div&gt;" style="sketch=0;outlineConnect=0;fontColor=#232F3E;gradientColor=none;fillColor=#232F3D;strokeColor=none;dashed=0;verticalLabelPosition=bottom;verticalAlign=top;align=center;html=1;fontSize=12;fontStyle=0;aspect=fixed;pointerEvents=1;shape=mxgraph.aws4.client;" vertex="1" parent="il65RGd4kSd9PAPHSQ9J-1">
          <mxGeometry x="82" y="924" width="78" height="76" as="geometry" />
        </mxCell>
        <mxCell id="il65RGd4kSd9PAPHSQ9J-94" value="路由器&lt;div&gt;内网 IP：192.168.3.1&lt;/div&gt;" style="image;html=1;image=img/lib/clip_art/networking/Wireless_Router_N_128x128.png" vertex="1" parent="il65RGd4kSd9PAPHSQ9J-1">
          <mxGeometry x="697" y="920" width="80" height="80" as="geometry" />
        </mxCell>
        <mxCell id="il65RGd4kSd9PAPHSQ9J-96" value="Data" style="rounded=0;whiteSpace=wrap;html=1;fillColor=#fad7ac;strokeColor=#b46504;" vertex="1" parent="il65RGd4kSd9PAPHSQ9J-1">
          <mxGeometry x="585" y="1045" width="53" height="40" as="geometry" />
        </mxCell>
        <mxCell id="il65RGd4kSd9PAPHSQ9J-97" value="TCP 头" style="rounded=0;whiteSpace=wrap;html=1;fillColor=#fad9d5;strokeColor=#ae4132;" vertex="1" parent="il65RGd4kSd9PAPHSQ9J-1">
          <mxGeometry x="532" y="1189" width="53" height="40" as="geometry" />
        </mxCell>
        <mxCell id="il65RGd4kSd9PAPHSQ9J-98" value="Data" style="rounded=0;whiteSpace=wrap;html=1;fillColor=#fad7ac;strokeColor=#b46504;" vertex="1" parent="il65RGd4kSd9PAPHSQ9J-1">
          <mxGeometry x="585" y="1189" width="53" height="40" as="geometry" />
        </mxCell>
        <mxCell id="il65RGd4kSd9PAPHSQ9J-99" value="..." style="rounded=0;whiteSpace=wrap;html=1;fillColor=#b0e3e6;strokeColor=#0e8088;" vertex="1" parent="il65RGd4kSd9PAPHSQ9J-1">
          <mxGeometry x="492" y="1279" width="40" height="40" as="geometry" />
        </mxCell>
        <mxCell id="il65RGd4kSd9PAPHSQ9J-100" value="&lt;span style=&quot;color: rgb(35, 47, 62); text-wrap: nowrap;&quot;&gt;用户内网IP&lt;/span&gt;&lt;div&gt;&lt;span style=&quot;color: rgb(35, 47, 62); text-wrap: nowrap;&quot;&gt;192.168.3.23&lt;/span&gt;&lt;/div&gt;" style="rounded=0;whiteSpace=wrap;html=1;fillColor=#b0e3e6;strokeColor=#0e8088;" vertex="1" parent="il65RGd4kSd9PAPHSQ9J-1">
          <mxGeometry x="352" y="1279" width="70" height="40" as="geometry" />
        </mxCell>
        <mxCell id="il65RGd4kSd9PAPHSQ9J-101" value="远程服务器公网 IP" style="rounded=0;whiteSpace=wrap;html=1;fillColor=#b0e3e6;strokeColor=#0e8088;" vertex="1" parent="il65RGd4kSd9PAPHSQ9J-1">
          <mxGeometry x="422" y="1279" width="70" height="40" as="geometry" />
        </mxCell>
        <mxCell id="il65RGd4kSd9PAPHSQ9J-102" value="IP Header" style="text;html=1;align=center;verticalAlign=middle;resizable=0;points=[];autosize=1;strokeColor=none;fillColor=none;" vertex="1" parent="il65RGd4kSd9PAPHSQ9J-1">
          <mxGeometry x="402" y="1239" width="80" height="30" as="geometry" />
        </mxCell>
        <mxCell id="il65RGd4kSd9PAPHSQ9J-103" value="" style="shape=curlyBracket;whiteSpace=wrap;html=1;rounded=1;labelPosition=left;verticalLabelPosition=middle;align=right;verticalAlign=middle;direction=south;" vertex="1" parent="il65RGd4kSd9PAPHSQ9J-1">
          <mxGeometry x="352" y="1257" width="180" height="20" as="geometry" />
        </mxCell>
        <mxCell id="il65RGd4kSd9PAPHSQ9J-104" value="TCP 头" style="rounded=0;whiteSpace=wrap;html=1;fillColor=#fad9d5;strokeColor=#ae4132;" vertex="1" parent="il65RGd4kSd9PAPHSQ9J-1">
          <mxGeometry x="532" y="1279" width="53" height="40" as="geometry" />
        </mxCell>
        <mxCell id="il65RGd4kSd9PAPHSQ9J-105" value="Data" style="rounded=0;whiteSpace=wrap;html=1;fillColor=#fad7ac;strokeColor=#b46504;" vertex="1" parent="il65RGd4kSd9PAPHSQ9J-1">
          <mxGeometry x="585" y="1279" width="53" height="40" as="geometry" />
        </mxCell>
        <mxCell id="il65RGd4kSd9PAPHSQ9J-106" value="DNS: 域名 --&amp;gt; IP" style="text;html=1;align=center;verticalAlign=middle;whiteSpace=wrap;rounded=0;fillColor=#f5f5f5;fontColor=#333333;strokeColor=#666666;" vertex="1" parent="il65RGd4kSd9PAPHSQ9J-1">
          <mxGeometry x="187" y="1104" width="100" height="30" as="geometry" />
        </mxCell>
        <mxCell id="il65RGd4kSd9PAPHSQ9J-107" value="ARP: IP--&amp;gt; MAC" style="text;html=1;align=center;verticalAlign=middle;whiteSpace=wrap;rounded=0;fillColor=#f5f5f5;fontColor=#333333;strokeColor=#666666;" vertex="1" parent="il65RGd4kSd9PAPHSQ9J-1">
          <mxGeometry x="187" y="1214" width="100" height="30" as="geometry" />
        </mxCell>
        <mxCell id="il65RGd4kSd9PAPHSQ9J-108" style="edgeStyle=orthogonalEdgeStyle;rounded=0;orthogonalLoop=1;jettySize=auto;html=1;exitX=1;exitY=0.5;exitDx=0;exitDy=0;entryX=0;entryY=0.5;entryDx=0;entryDy=0;startArrow=none;startFill=0;" edge="1" parent="il65RGd4kSd9PAPHSQ9J-1" target="il65RGd4kSd9PAPHSQ9J-126">
          <mxGeometry relative="1" as="geometry">
            <mxPoint x="797" y="1360" as="sourcePoint" />
            <mxPoint x="1517" y="1360" as="targetPoint" />
          </mxGeometry>
        </mxCell>
        <mxCell id="il65RGd4kSd9PAPHSQ9J-109" value="TCP 头" style="rounded=0;whiteSpace=wrap;html=1;fillColor=#fad9d5;strokeColor=#ae4132;" vertex="1" parent="il65RGd4kSd9PAPHSQ9J-1">
          <mxGeometry x="1149" y="1119" width="53" height="40" as="geometry" />
        </mxCell>
        <mxCell id="il65RGd4kSd9PAPHSQ9J-110" value="Data" style="rounded=0;whiteSpace=wrap;html=1;fillColor=#fad7ac;strokeColor=#b46504;" vertex="1" parent="il65RGd4kSd9PAPHSQ9J-1">
          <mxGeometry x="1202" y="1119" width="53" height="40" as="geometry" />
        </mxCell>
        <mxCell id="il65RGd4kSd9PAPHSQ9J-111" value="..." style="rounded=0;whiteSpace=wrap;html=1;fillColor=#b0e3e6;strokeColor=#0e8088;" vertex="1" parent="il65RGd4kSd9PAPHSQ9J-1">
          <mxGeometry x="1109" y="1189" width="40" height="40" as="geometry" />
        </mxCell>
        <mxCell id="il65RGd4kSd9PAPHSQ9J-112" value="&lt;span style=&quot;color: rgb(35, 47, 62); text-wrap: nowrap;&quot;&gt;用户内网IP&lt;/span&gt;&lt;div&gt;&lt;span style=&quot;color: rgb(35, 47, 62); text-wrap: nowrap;&quot;&gt;192.168.3.23&lt;/span&gt;&lt;/div&gt;" style="rounded=0;whiteSpace=wrap;html=1;fillColor=#b0e3e6;strokeColor=#0e8088;" vertex="1" parent="il65RGd4kSd9PAPHSQ9J-1">
          <mxGeometry x="969" y="1189" width="70" height="40" as="geometry" />
        </mxCell>
        <mxCell id="il65RGd4kSd9PAPHSQ9J-113" value="远程服务器公网 IP" style="rounded=0;whiteSpace=wrap;html=1;fillColor=#b0e3e6;strokeColor=#0e8088;" vertex="1" parent="il65RGd4kSd9PAPHSQ9J-1">
          <mxGeometry x="1039" y="1189" width="70" height="40" as="geometry" />
        </mxCell>
        <mxCell id="il65RGd4kSd9PAPHSQ9J-114" value="IP Header" style="text;html=1;align=center;verticalAlign=middle;resizable=0;points=[];autosize=1;strokeColor=none;fillColor=none;" vertex="1" parent="il65RGd4kSd9PAPHSQ9J-1">
          <mxGeometry x="1019" y="1149" width="80" height="30" as="geometry" />
        </mxCell>
        <mxCell id="il65RGd4kSd9PAPHSQ9J-115" value="..." style="rounded=0;whiteSpace=wrap;html=1;fillColor=#d0cee2;strokeColor=#56517e;" vertex="1" parent="il65RGd4kSd9PAPHSQ9J-1">
          <mxGeometry x="947" y="1279" width="22" height="40" as="geometry" />
        </mxCell>
        <mxCell id="il65RGd4kSd9PAPHSQ9J-116" value="路由器&lt;div&gt;MAC&lt;/div&gt;" style="rounded=0;whiteSpace=wrap;html=1;fillColor=#d0cee2;strokeColor=#56517e;" vertex="1" parent="il65RGd4kSd9PAPHSQ9J-1">
          <mxGeometry x="807" y="1279" width="70" height="40" as="geometry" />
        </mxCell>
        <mxCell id="il65RGd4kSd9PAPHSQ9J-117" value="MAC Header" style="text;html=1;align=center;verticalAlign=middle;resizable=0;points=[];autosize=1;strokeColor=none;fillColor=none;" vertex="1" parent="il65RGd4kSd9PAPHSQ9J-1">
          <mxGeometry x="830.5" y="1238" width="90" height="30" as="geometry" />
        </mxCell>
        <mxCell id="il65RGd4kSd9PAPHSQ9J-118" value="" style="shape=curlyBracket;whiteSpace=wrap;html=1;rounded=1;labelPosition=left;verticalLabelPosition=middle;align=right;verticalAlign=middle;direction=south;" vertex="1" parent="il65RGd4kSd9PAPHSQ9J-1">
          <mxGeometry x="969" y="1167" width="180" height="20" as="geometry" />
        </mxCell>
        <mxCell id="il65RGd4kSd9PAPHSQ9J-119" value="" style="rounded=0;whiteSpace=wrap;html=1;fillColor=#d0cee2;strokeColor=#56517e;" vertex="1" parent="il65RGd4kSd9PAPHSQ9J-1">
          <mxGeometry x="1255" y="1279" width="22" height="40" as="geometry" />
        </mxCell>
        <mxCell id="il65RGd4kSd9PAPHSQ9J-120" value="010101010101110101" style="text;html=1;align=center;verticalAlign=middle;whiteSpace=wrap;rounded=0;" vertex="1" parent="il65RGd4kSd9PAPHSQ9J-1">
          <mxGeometry x="957.11" y="1362" width="148" height="30" as="geometry" />
        </mxCell>
        <mxCell id="il65RGd4kSd9PAPHSQ9J-121" value="应用层&lt;div&gt;Application Layer&lt;/div&gt;" style="rounded=0;whiteSpace=wrap;html=1;fillColor=#fad7ac;strokeColor=#b46504;" vertex="1" parent="il65RGd4kSd9PAPHSQ9J-1">
          <mxGeometry x="1294" y="1045" width="120" height="70" as="geometry" />
        </mxCell>
        <mxCell id="il65RGd4kSd9PAPHSQ9J-122" value="传输层&lt;div&gt;Transport Layer&lt;/div&gt;" style="rounded=0;whiteSpace=wrap;html=1;fillColor=#fad9d5;strokeColor=#ae4132;" vertex="1" parent="il65RGd4kSd9PAPHSQ9J-1">
          <mxGeometry x="1294" y="1115" width="120" height="70" as="geometry" />
        </mxCell>
        <mxCell id="il65RGd4kSd9PAPHSQ9J-123" value="网络层&lt;div&gt;Network Layer&lt;/div&gt;" style="rounded=0;whiteSpace=wrap;html=1;fillColor=#b0e3e6;strokeColor=#0e8088;" vertex="1" parent="il65RGd4kSd9PAPHSQ9J-1">
          <mxGeometry x="1294" y="1185" width="120" height="70" as="geometry" />
        </mxCell>
        <mxCell id="il65RGd4kSd9PAPHSQ9J-124" value="数据链路层&lt;div&gt;Data Link Layer&lt;/div&gt;" style="rounded=0;whiteSpace=wrap;html=1;fillColor=#d0cee2;strokeColor=#56517e;" vertex="1" parent="il65RGd4kSd9PAPHSQ9J-1">
          <mxGeometry x="1294" y="1255" width="120" height="70" as="geometry" />
        </mxCell>
        <mxCell id="il65RGd4kSd9PAPHSQ9J-125" style="edgeStyle=orthogonalEdgeStyle;rounded=0;orthogonalLoop=1;jettySize=auto;html=1;exitX=1;exitY=0.5;exitDx=0;exitDy=0;entryX=0;entryY=0.5;entryDx=0;entryDy=0;" edge="1" parent="il65RGd4kSd9PAPHSQ9J-1" source="il65RGd4kSd9PAPHSQ9J-126" target="il65RGd4kSd9PAPHSQ9J-148">
          <mxGeometry relative="1" as="geometry" />
        </mxCell>
        <mxCell id="il65RGd4kSd9PAPHSQ9J-126" value="物理层&lt;div&gt;Physical Layer&lt;/div&gt;" style="rounded=0;whiteSpace=wrap;html=1;fillColor=#bac8d3;strokeColor=#23445d;" vertex="1" parent="il65RGd4kSd9PAPHSQ9J-1">
          <mxGeometry x="1294" y="1325" width="120" height="70" as="geometry" />
        </mxCell>
        <mxCell id="il65RGd4kSd9PAPHSQ9J-127" value="&lt;div&gt;下一跳&lt;/div&gt;&lt;div&gt;MAC&lt;/div&gt;" style="rounded=0;whiteSpace=wrap;html=1;fillColor=#d0cee2;strokeColor=#56517e;" vertex="1" parent="il65RGd4kSd9PAPHSQ9J-1">
          <mxGeometry x="877" y="1279" width="70" height="40" as="geometry" />
        </mxCell>
        <mxCell id="il65RGd4kSd9PAPHSQ9J-128" value="" style="shape=curlyBracket;whiteSpace=wrap;html=1;rounded=1;labelPosition=left;verticalLabelPosition=middle;align=right;verticalAlign=middle;direction=south;" vertex="1" parent="il65RGd4kSd9PAPHSQ9J-1">
          <mxGeometry x="807" y="1257" width="162" height="20" as="geometry" />
        </mxCell>
        <mxCell id="il65RGd4kSd9PAPHSQ9J-129" value="&lt;div&gt;光猫&lt;/div&gt;&lt;div&gt;私有 IP：192.168.1.1&lt;/div&gt;" style="html=1;image=img/lib/allied_telesis/security/Router_VPN.svg;shape=image;labelBackgroundColor=default;verticalAlign=top;verticalLabelPosition=bottom;points=[];aspect=fixed;shadow=0;dashed=0;" vertex="1" parent="il65RGd4kSd9PAPHSQ9J-1">
          <mxGeometry x="1314" y="920" width="80" height="80" as="geometry" />
        </mxCell>
        <mxCell id="il65RGd4kSd9PAPHSQ9J-130" value="Data" style="rounded=0;whiteSpace=wrap;html=1;fillColor=#fad7ac;strokeColor=#b46504;" vertex="1" parent="il65RGd4kSd9PAPHSQ9J-1">
          <mxGeometry x="1202" y="1045" width="53" height="40" as="geometry" />
        </mxCell>
        <mxCell id="il65RGd4kSd9PAPHSQ9J-131" value="TCP 头" style="rounded=0;whiteSpace=wrap;html=1;fillColor=#fad9d5;strokeColor=#ae4132;" vertex="1" parent="il65RGd4kSd9PAPHSQ9J-1">
          <mxGeometry x="1149" y="1189" width="53" height="40" as="geometry" />
        </mxCell>
        <mxCell id="il65RGd4kSd9PAPHSQ9J-132" value="Data" style="rounded=0;whiteSpace=wrap;html=1;fillColor=#fad7ac;strokeColor=#b46504;" vertex="1" parent="il65RGd4kSd9PAPHSQ9J-1">
          <mxGeometry x="1202" y="1189" width="53" height="40" as="geometry" />
        </mxCell>
        <mxCell id="il65RGd4kSd9PAPHSQ9J-133" value="..." style="rounded=0;whiteSpace=wrap;html=1;fillColor=#b0e3e6;strokeColor=#0e8088;" vertex="1" parent="il65RGd4kSd9PAPHSQ9J-1">
          <mxGeometry x="1109" y="1279" width="40" height="40" as="geometry" />
        </mxCell>
        <mxCell id="il65RGd4kSd9PAPHSQ9J-134" value="&lt;span style=&quot;color: rgb(35, 47, 62); text-wrap: nowrap;&quot;&gt;用户内网IP&lt;/span&gt;&lt;div&gt;&lt;span style=&quot;color: rgb(35, 47, 62); text-wrap: nowrap;&quot;&gt;192.168.3.23&lt;/span&gt;&lt;/div&gt;" style="rounded=0;whiteSpace=wrap;html=1;fillColor=#b0e3e6;strokeColor=#0e8088;" vertex="1" parent="il65RGd4kSd9PAPHSQ9J-1">
          <mxGeometry x="969" y="1279" width="70" height="40" as="geometry" />
        </mxCell>
        <mxCell id="il65RGd4kSd9PAPHSQ9J-135" value="远程服务器公网 IP" style="rounded=0;whiteSpace=wrap;html=1;fillColor=#b0e3e6;strokeColor=#0e8088;" vertex="1" parent="il65RGd4kSd9PAPHSQ9J-1">
          <mxGeometry x="1039" y="1279" width="70" height="40" as="geometry" />
        </mxCell>
        <mxCell id="il65RGd4kSd9PAPHSQ9J-136" value="IP Header" style="text;html=1;align=center;verticalAlign=middle;resizable=0;points=[];autosize=1;strokeColor=none;fillColor=none;" vertex="1" parent="il65RGd4kSd9PAPHSQ9J-1">
          <mxGeometry x="1019" y="1239" width="80" height="30" as="geometry" />
        </mxCell>
        <mxCell id="il65RGd4kSd9PAPHSQ9J-137" value="" style="shape=curlyBracket;whiteSpace=wrap;html=1;rounded=1;labelPosition=left;verticalLabelPosition=middle;align=right;verticalAlign=middle;direction=south;" vertex="1" parent="il65RGd4kSd9PAPHSQ9J-1">
          <mxGeometry x="969" y="1257" width="180" height="20" as="geometry" />
        </mxCell>
        <mxCell id="il65RGd4kSd9PAPHSQ9J-138" value="TCP 头" style="rounded=0;whiteSpace=wrap;html=1;fillColor=#fad9d5;strokeColor=#ae4132;" vertex="1" parent="il65RGd4kSd9PAPHSQ9J-1">
          <mxGeometry x="1149" y="1279" width="53" height="40" as="geometry" />
        </mxCell>
        <mxCell id="il65RGd4kSd9PAPHSQ9J-139" value="Data" style="rounded=0;whiteSpace=wrap;html=1;fillColor=#fad7ac;strokeColor=#b46504;" vertex="1" parent="il65RGd4kSd9PAPHSQ9J-1">
          <mxGeometry x="1202" y="1279" width="53" height="40" as="geometry" />
        </mxCell>
        <mxCell id="il65RGd4kSd9PAPHSQ9J-140" value="&lt;font color=&quot;#cc0000&quot;&gt;路由器改写源 MAC 和目标 MAC&lt;/font&gt;" style="text;html=1;align=center;verticalAlign=middle;whiteSpace=wrap;rounded=0;fillColor=#f5f5f5;fontColor=#333333;strokeColor=#666666;" vertex="1" parent="il65RGd4kSd9PAPHSQ9J-1">
          <mxGeometry x="810.5" y="1205" width="110" height="30" as="geometry" />
        </mxCell>
        <mxCell id="il65RGd4kSd9PAPHSQ9J-141" value="&lt;font color=&quot;#6600cc&quot;&gt;路由器还未进行 NAT，不改写源 IP&lt;/font&gt;" style="text;html=1;align=center;verticalAlign=middle;whiteSpace=wrap;rounded=0;fillColor=#f5f5f5;strokeColor=#666666;fontColor=#333333;" vertex="1" parent="il65RGd4kSd9PAPHSQ9J-1">
          <mxGeometry x="830.5" y="1137" width="193" height="30" as="geometry" />
        </mxCell>
        <mxCell id="il65RGd4kSd9PAPHSQ9J-142" value="CGNAT（Carrier-Grade NAT）&lt;div&gt;区域内的用户统一使用一个公网 IP&lt;/div&gt;" style="text;html=1;align=center;verticalAlign=middle;whiteSpace=wrap;rounded=0;" vertex="1" parent="il65RGd4kSd9PAPHSQ9J-1">
          <mxGeometry x="1628.29" y="1014" width="230" height="30" as="geometry" />
        </mxCell>
        <mxCell id="il65RGd4kSd9PAPHSQ9J-143" value="ISP&amp;nbsp; CGNAT&lt;div&gt;公网 IP&lt;/div&gt;" style="image;aspect=fixed;perimeter=ellipsePerimeter;html=1;align=center;shadow=0;dashed=0;spacingTop=3;image=img/lib/active_directory/shadowed_router.svg;" vertex="1" parent="il65RGd4kSd9PAPHSQ9J-1">
          <mxGeometry x="1540" y="931" width="56.58" height="69" as="geometry" />
        </mxCell>
        <mxCell id="il65RGd4kSd9PAPHSQ9J-144" value="应用层&lt;div&gt;Application Layer&lt;/div&gt;" style="rounded=0;whiteSpace=wrap;html=1;fillColor=#fad7ac;strokeColor=#b46504;" vertex="1" parent="il65RGd4kSd9PAPHSQ9J-1">
          <mxGeometry x="1508.29" y="1045" width="120" height="70" as="geometry" />
        </mxCell>
        <mxCell id="il65RGd4kSd9PAPHSQ9J-145" value="传输层&lt;div&gt;Transport Layer&lt;/div&gt;" style="rounded=0;whiteSpace=wrap;html=1;fillColor=#fad9d5;strokeColor=#ae4132;" vertex="1" parent="il65RGd4kSd9PAPHSQ9J-1">
          <mxGeometry x="1508.29" y="1115" width="120" height="70" as="geometry" />
        </mxCell>
        <mxCell id="il65RGd4kSd9PAPHSQ9J-146" value="网络层&lt;div&gt;Network Layer&lt;/div&gt;" style="rounded=0;whiteSpace=wrap;html=1;fillColor=#b0e3e6;strokeColor=#0e8088;" vertex="1" parent="il65RGd4kSd9PAPHSQ9J-1">
          <mxGeometry x="1508.29" y="1185" width="120" height="70" as="geometry" />
        </mxCell>
        <mxCell id="il65RGd4kSd9PAPHSQ9J-147" value="数据链路层&lt;div&gt;Data Link Layer&lt;/div&gt;" style="rounded=0;whiteSpace=wrap;html=1;fillColor=#d0cee2;strokeColor=#56517e;" vertex="1" parent="il65RGd4kSd9PAPHSQ9J-1">
          <mxGeometry x="1508.29" y="1255" width="120" height="70" as="geometry" />
        </mxCell>
        <mxCell id="il65RGd4kSd9PAPHSQ9J-148" value="物理层&lt;div&gt;Physical Layer&lt;/div&gt;" style="rounded=0;whiteSpace=wrap;html=1;fillColor=#bac8d3;strokeColor=#23445d;" vertex="1" parent="il65RGd4kSd9PAPHSQ9J-1">
          <mxGeometry x="1508.29" y="1325" width="120" height="70" as="geometry" />
        </mxCell>
        <mxCell id="il65RGd4kSd9PAPHSQ9J-149" value="只改写源 MAC 和目标 MAC" style="text;html=1;align=center;verticalAlign=middle;whiteSpace=wrap;rounded=0;fillColor=#f5f5f5;fontColor=#333333;strokeColor=#666666;" vertex="1" parent="il65RGd4kSd9PAPHSQ9J-1">
          <mxGeometry x="1420" y="1279" width="80" height="30" as="geometry" />
        </mxCell>
        <mxCell id="il65RGd4kSd9PAPHSQ9J-150" style="edgeStyle=orthogonalEdgeStyle;rounded=0;orthogonalLoop=1;jettySize=auto;html=1;exitX=1;exitY=0.5;exitDx=0;exitDy=0;startArrow=none;startFill=0;" edge="1" parent="il65RGd4kSd9PAPHSQ9J-1">
          <mxGeometry relative="1" as="geometry">
            <mxPoint x="1628.29" y="1360" as="sourcePoint" />
            <mxPoint x="2140" y="1360" as="targetPoint" />
          </mxGeometry>
        </mxCell>
        <mxCell id="il65RGd4kSd9PAPHSQ9J-151" value="TCP 头" style="rounded=0;whiteSpace=wrap;html=1;fillColor=#fad9d5;strokeColor=#ae4132;" vertex="1" parent="il65RGd4kSd9PAPHSQ9J-1">
          <mxGeometry x="1980.29" y="1119" width="53" height="40" as="geometry" />
        </mxCell>
        <mxCell id="il65RGd4kSd9PAPHSQ9J-152" value="Data" style="rounded=0;whiteSpace=wrap;html=1;fillColor=#fad7ac;strokeColor=#b46504;" vertex="1" parent="il65RGd4kSd9PAPHSQ9J-1">
          <mxGeometry x="2033.29" y="1119" width="53" height="40" as="geometry" />
        </mxCell>
        <mxCell id="il65RGd4kSd9PAPHSQ9J-153" value="..." style="rounded=0;whiteSpace=wrap;html=1;fillColor=#b0e3e6;strokeColor=#0e8088;" vertex="1" parent="il65RGd4kSd9PAPHSQ9J-1">
          <mxGeometry x="1940.29" y="1189" width="40" height="40" as="geometry" />
        </mxCell>
        <mxCell id="il65RGd4kSd9PAPHSQ9J-154" value="&lt;font color=&quot;#cc0000&quot;&gt;&lt;span style=&quot;text-wrap: nowrap;&quot;&gt;ISP&lt;/span&gt;&lt;span style=&quot;text-wrap: nowrap; background-color: initial;&quot;&gt;公网IP&lt;/span&gt;&lt;/font&gt;" style="rounded=0;whiteSpace=wrap;html=1;fillColor=#b0e3e6;strokeColor=#0e8088;" vertex="1" parent="il65RGd4kSd9PAPHSQ9J-1">
          <mxGeometry x="1800.29" y="1189" width="70" height="40" as="geometry" />
        </mxCell>
        <mxCell id="il65RGd4kSd9PAPHSQ9J-155" value="远程服务器公网 IP" style="rounded=0;whiteSpace=wrap;html=1;fillColor=#b0e3e6;strokeColor=#0e8088;" vertex="1" parent="il65RGd4kSd9PAPHSQ9J-1">
          <mxGeometry x="1870.29" y="1189" width="70" height="40" as="geometry" />
        </mxCell>
        <mxCell id="il65RGd4kSd9PAPHSQ9J-156" value="IP Header" style="text;html=1;align=center;verticalAlign=middle;resizable=0;points=[];autosize=1;strokeColor=none;fillColor=none;" vertex="1" parent="il65RGd4kSd9PAPHSQ9J-1">
          <mxGeometry x="1850.29" y="1149" width="80" height="30" as="geometry" />
        </mxCell>
        <mxCell id="il65RGd4kSd9PAPHSQ9J-157" value="..." style="rounded=0;whiteSpace=wrap;html=1;fillColor=#d0cee2;strokeColor=#56517e;" vertex="1" parent="il65RGd4kSd9PAPHSQ9J-1">
          <mxGeometry x="1778.29" y="1279" width="22" height="40" as="geometry" />
        </mxCell>
        <mxCell id="il65RGd4kSd9PAPHSQ9J-158" value="源&lt;div&gt;MAC&lt;/div&gt;" style="rounded=0;whiteSpace=wrap;html=1;fillColor=#d0cee2;strokeColor=#56517e;" vertex="1" parent="il65RGd4kSd9PAPHSQ9J-1">
          <mxGeometry x="1638.29" y="1279" width="70" height="40" as="geometry" />
        </mxCell>
        <mxCell id="il65RGd4kSd9PAPHSQ9J-159" value="MAC Header" style="text;html=1;align=center;verticalAlign=middle;resizable=0;points=[];autosize=1;strokeColor=none;fillColor=none;" vertex="1" parent="il65RGd4kSd9PAPHSQ9J-1">
          <mxGeometry x="1661.79" y="1238" width="90" height="30" as="geometry" />
        </mxCell>
        <mxCell id="il65RGd4kSd9PAPHSQ9J-160" value="" style="shape=curlyBracket;whiteSpace=wrap;html=1;rounded=1;labelPosition=left;verticalLabelPosition=middle;align=right;verticalAlign=middle;direction=south;" vertex="1" parent="il65RGd4kSd9PAPHSQ9J-1">
          <mxGeometry x="1800.29" y="1167" width="180" height="20" as="geometry" />
        </mxCell>
        <mxCell id="il65RGd4kSd9PAPHSQ9J-161" value="" style="rounded=0;whiteSpace=wrap;html=1;fillColor=#d0cee2;strokeColor=#56517e;" vertex="1" parent="il65RGd4kSd9PAPHSQ9J-1">
          <mxGeometry x="2086.29" y="1279" width="22" height="40" as="geometry" />
        </mxCell>
        <mxCell id="il65RGd4kSd9PAPHSQ9J-162" value="010101010101110101" style="text;html=1;align=center;verticalAlign=middle;whiteSpace=wrap;rounded=0;" vertex="1" parent="il65RGd4kSd9PAPHSQ9J-1">
          <mxGeometry x="1788.4" y="1362" width="148" height="30" as="geometry" />
        </mxCell>
        <mxCell id="il65RGd4kSd9PAPHSQ9J-163" value="&lt;div&gt;下一跳&lt;/div&gt;&lt;div&gt;MAC&lt;/div&gt;" style="rounded=0;whiteSpace=wrap;html=1;fillColor=#d0cee2;strokeColor=#56517e;" vertex="1" parent="il65RGd4kSd9PAPHSQ9J-1">
          <mxGeometry x="1708.29" y="1279" width="70" height="40" as="geometry" />
        </mxCell>
        <mxCell id="il65RGd4kSd9PAPHSQ9J-164" value="" style="shape=curlyBracket;whiteSpace=wrap;html=1;rounded=1;labelPosition=left;verticalLabelPosition=middle;align=right;verticalAlign=middle;direction=south;" vertex="1" parent="il65RGd4kSd9PAPHSQ9J-1">
          <mxGeometry x="1638.29" y="1257" width="162" height="20" as="geometry" />
        </mxCell>
        <mxCell id="il65RGd4kSd9PAPHSQ9J-165" value="Data" style="rounded=0;whiteSpace=wrap;html=1;fillColor=#fad7ac;strokeColor=#b46504;" vertex="1" parent="il65RGd4kSd9PAPHSQ9J-1">
          <mxGeometry x="2033.29" y="1045" width="53" height="40" as="geometry" />
        </mxCell>
        <mxCell id="il65RGd4kSd9PAPHSQ9J-166" value="TCP 头" style="rounded=0;whiteSpace=wrap;html=1;fillColor=#fad9d5;strokeColor=#ae4132;" vertex="1" parent="il65RGd4kSd9PAPHSQ9J-1">
          <mxGeometry x="1980.29" y="1189" width="53" height="40" as="geometry" />
        </mxCell>
        <mxCell id="il65RGd4kSd9PAPHSQ9J-167" value="Data" style="rounded=0;whiteSpace=wrap;html=1;fillColor=#fad7ac;strokeColor=#b46504;" vertex="1" parent="il65RGd4kSd9PAPHSQ9J-1">
          <mxGeometry x="2033.29" y="1189" width="53" height="40" as="geometry" />
        </mxCell>
        <mxCell id="il65RGd4kSd9PAPHSQ9J-168" value="..." style="rounded=0;whiteSpace=wrap;html=1;fillColor=#b0e3e6;strokeColor=#0e8088;" vertex="1" parent="il65RGd4kSd9PAPHSQ9J-1">
          <mxGeometry x="1940.29" y="1279" width="40" height="40" as="geometry" />
        </mxCell>
        <mxCell id="il65RGd4kSd9PAPHSQ9J-169" value="远程服务器公网 IP" style="rounded=0;whiteSpace=wrap;html=1;fillColor=#b0e3e6;strokeColor=#0e8088;" vertex="1" parent="il65RGd4kSd9PAPHSQ9J-1">
          <mxGeometry x="1870.29" y="1279" width="70" height="40" as="geometry" />
        </mxCell>
        <mxCell id="il65RGd4kSd9PAPHSQ9J-170" value="IP Header" style="text;html=1;align=center;verticalAlign=middle;resizable=0;points=[];autosize=1;strokeColor=none;fillColor=none;" vertex="1" parent="il65RGd4kSd9PAPHSQ9J-1">
          <mxGeometry x="1850.29" y="1239" width="80" height="30" as="geometry" />
        </mxCell>
        <mxCell id="il65RGd4kSd9PAPHSQ9J-171" value="" style="shape=curlyBracket;whiteSpace=wrap;html=1;rounded=1;labelPosition=left;verticalLabelPosition=middle;align=right;verticalAlign=middle;direction=south;" vertex="1" parent="il65RGd4kSd9PAPHSQ9J-1">
          <mxGeometry x="1800.29" y="1257" width="180" height="20" as="geometry" />
        </mxCell>
        <mxCell id="il65RGd4kSd9PAPHSQ9J-172" value="TCP 头" style="rounded=0;whiteSpace=wrap;html=1;fillColor=#fad9d5;strokeColor=#ae4132;" vertex="1" parent="il65RGd4kSd9PAPHSQ9J-1">
          <mxGeometry x="1980.29" y="1279" width="53" height="40" as="geometry" />
        </mxCell>
        <mxCell id="il65RGd4kSd9PAPHSQ9J-173" value="Data" style="rounded=0;whiteSpace=wrap;html=1;fillColor=#fad7ac;strokeColor=#b46504;" vertex="1" parent="il65RGd4kSd9PAPHSQ9J-1">
          <mxGeometry x="2033.29" y="1279" width="53" height="40" as="geometry" />
        </mxCell>
        <mxCell id="il65RGd4kSd9PAPHSQ9J-174" value="改写 MAC" style="text;html=1;align=center;verticalAlign=middle;whiteSpace=wrap;rounded=0;fillColor=#f5f5f5;fontColor=#333333;strokeColor=#666666;" vertex="1" parent="il65RGd4kSd9PAPHSQ9J-1">
          <mxGeometry x="1641.79" y="1205" width="88.21" height="30" as="geometry" />
        </mxCell>
        <mxCell id="il65RGd4kSd9PAPHSQ9J-175" value="&lt;font color=&quot;#cc0000&quot;&gt;进行 NAT，改写源 IP 和端口号，记录 NAT 映射表&lt;/font&gt;" style="text;html=1;align=center;verticalAlign=middle;whiteSpace=wrap;rounded=0;fillColor=#f5f5f5;strokeColor=#666666;fontColor=#333333;" vertex="1" parent="il65RGd4kSd9PAPHSQ9J-1">
          <mxGeometry x="1651.29" y="1119" width="276" height="30" as="geometry" />
        </mxCell>
        <mxCell id="il65RGd4kSd9PAPHSQ9J-176" value="&lt;font color=&quot;#cc0000&quot;&gt;&lt;span style=&quot;text-wrap: nowrap;&quot;&gt;ISP&lt;/span&gt;&lt;span style=&quot;text-wrap: nowrap; background-color: initial;&quot;&gt;公网IP&lt;/span&gt;&lt;/font&gt;" style="rounded=0;whiteSpace=wrap;html=1;fillColor=#b0e3e6;strokeColor=#0e8088;" vertex="1" parent="il65RGd4kSd9PAPHSQ9J-1">
          <mxGeometry x="1800.29" y="1279" width="70" height="40" as="geometry" />
        </mxCell>
        <mxCell id="il65RGd4kSd9PAPHSQ9J-177" style="edgeStyle=orthogonalEdgeStyle;rounded=0;orthogonalLoop=1;jettySize=auto;html=1;exitX=0.5;exitY=1;exitDx=0;exitDy=0;endArrow=none;endFill=0;dashed=1;" edge="1" parent="il65RGd4kSd9PAPHSQ9J-1" source="il65RGd4kSd9PAPHSQ9J-178">
          <mxGeometry relative="1" as="geometry">
            <mxPoint x="2140" y="1384" as="targetPoint" />
            <Array as="points">
              <mxPoint x="2140" y="1384" />
            </Array>
          </mxGeometry>
        </mxCell>
        <mxCell id="il65RGd4kSd9PAPHSQ9J-178" value="公网" style="image;aspect=fixed;perimeter=ellipsePerimeter;html=1;align=center;shadow=0;dashed=0;spacingTop=3;image=img/lib/active_directory/internet_cloud.svg;" vertex="1" parent="il65RGd4kSd9PAPHSQ9J-1">
          <mxGeometry x="2090" y="936.5" width="100.8" height="63.5" as="geometry" />
        </mxCell>
        <mxCell id="il65RGd4kSd9PAPHSQ9J-179" style="edgeStyle=orthogonalEdgeStyle;rounded=0;orthogonalLoop=1;jettySize=auto;html=1;exitX=0.5;exitY=1;exitDx=0;exitDy=0;endArrow=none;endFill=0;dashed=1;" edge="1" parent="il65RGd4kSd9PAPHSQ9J-1" source="il65RGd4kSd9PAPHSQ9J-180">
          <mxGeometry relative="1" as="geometry">
            <mxPoint x="2250" y="1384" as="targetPoint" />
          </mxGeometry>
        </mxCell>
        <mxCell id="il65RGd4kSd9PAPHSQ9J-180" value="服务器" style="image;html=1;image=img/lib/clip_art/computers/Server_128x128.png" vertex="1" parent="il65RGd4kSd9PAPHSQ9J-1">
          <mxGeometry x="2210" y="940" width="80" height="59" as="geometry" />
        </mxCell>
        <mxCell id="il65RGd4kSd9PAPHSQ9J-181" value="" style="endArrow=classic;html=1;rounded=0;" edge="1" parent="il65RGd4kSd9PAPHSQ9J-1">
          <mxGeometry width="50" height="50" relative="1" as="geometry">
            <mxPoint x="2140" y="1362" as="sourcePoint" />
            <mxPoint x="2250" y="1362" as="targetPoint" />
          </mxGeometry>
        </mxCell>
        <mxCell id="il65RGd4kSd9PAPHSQ9J-183" value="" style="endArrow=classic;html=1;rounded=0;" edge="1" parent="il65RGd4kSd9PAPHSQ9J-1">
          <mxGeometry width="50" height="50" relative="1" as="geometry">
            <mxPoint x="2230" y="1325" as="sourcePoint" />
            <mxPoint x="2230" y="1055" as="targetPoint" />
          </mxGeometry>
        </mxCell>
        <mxCell id="il65RGd4kSd9PAPHSQ9J-184" value="协议解析" style="edgeLabel;html=1;align=center;verticalAlign=middle;resizable=0;points=[];" vertex="1" connectable="0" parent="il65RGd4kSd9PAPHSQ9J-183">
          <mxGeometry y="-1" relative="1" as="geometry">
            <mxPoint as="offset" />
          </mxGeometry>
        </mxCell>
      </root>
    </mxGraphModel>
  </diagram>
</mxfile>
